<?xml version="1.0" encoding="UTF-8"?>
<svg width="25px" height="25px" viewBox="0 0 25 25" version="1.1" xmlns="http://www.w3.org/2000/svg" xmlns:xlink="http://www.w3.org/1999/xlink">
    <title>Group</title>
    <g id="Perfil" stroke="none" stroke-width="1" fill="none" fill-rule="evenodd">
        <g id="Tela-Perfil" fill-rule="nonzero" transform="translate(-116, -783)">
            <g id="Group" fill-rule="evenodd" transform="translate(115.0124, 782.0124)">
                <polygon id="Path" fill-rule="nonzero" transform="translate(13, 13) rotate(-0.0593) translate(-13, -13)" points="1 1 25 1 25 25 1 25"></polygon>
                <path d="M23.232622,21.2529342 L5.48575673,21.2529342 C4.38118723,21.2529342 3.48575673,20.3575037 3.48575673,19.2529342 L3.48575673,3.73666835 C3.48575673,3.32296042 3.15038019,2.98758388 2.73667226,2.98758388 C2.32296433,2.98758388 1.98758779,3.32296042 1.98758779,3.73666835 L1.98758779,19.7628658 C1.98758779,21.41972 3.33073354,22.7628658 4.98758779,22.7628658 L23.232622,22.7628658 C23.6495781,22.7628658 23.9875878,22.4248561 23.9875878,22.0079 C23.9875878,21.5909439 23.6495781,21.2529342 23.232622,21.2529342 Z M7.50433736,15.4788328 L10.571451,12.4156421 C11.0186333,11.9690317 11.7355661,11.9458141 12.2107079,12.3625552 L14.3782958,14.2637208 C14.8387615,14.6675899 15.5294858,14.6598688 15.9808086,14.2458075 L22.2699912,8.47586227 C22.5473606,8.22139261 22.5659245,7.79025188 22.3114549,7.51288249 C22.303622,7.50434471 22.2955726,7.49600806 22.2873147,7.48788067 C22.0021488,7.20722231 21.5459152,7.20287992 21.2554588,7.47805957 L15.9934279,12.4633312 C15.5385843,12.8942521 14.8287686,12.9027065 14.3637903,12.4827413 L12.1953307,10.5242037 C11.7281611,10.1022594 11.0143465,10.1130448 10.560138,10.5489107 L6.47474653,14.4693193 C6.19320104,14.739495 6.18398398,15.1867533 6.45415964,15.4682988 C6.45909189,15.4734386 6.4641016,15.4785035 6.46918704,15.4834919 C6.75716988,15.7659744 7.21890895,15.7638962 7.50433736,15.4788328 Z" id="Vector" fill="#000000" fill-rule="nonzero"></path>
            </g>
        </g>
    </g>
</svg>