<?xml version="1.0" encoding="UTF-8"?>
<svg width="24px" height="24px" viewBox="0 0 24 24" version="1.1" xmlns="http://www.w3.org/2000/svg" xmlns:xlink="http://www.w3.org/1999/xlink">
    <title>Group</title>
    <g id="Symbols" stroke="none" stroke-width="1" fill="none" fill-rule="evenodd">
        <g id="Group" transform="translate(-0.005, -0.005)" fill-rule="nonzero">
            <polygon id="Path" points="24.0100002 24.0100002 0 24.0100002 0 0 24.0100002 0"></polygon>
            <g transform="translate(4.0051, 6.005)" stroke="#74D999" stroke-linecap="round" stroke-linejoin="round" stroke-width="1.5">
                <path d="M9.82409143,7.82025719 C8.81767225,8.82667637 7.18899411,8.82667637 6.18357533,7.82025719 C5.17915696,6.81583881 5.17915696,5.18616027 6.18357533,4.17974108" id="Path"></path>
                <path d="M6.33939997,0.121865802 C6.97807914,-0.0164187219 7.32718005,-4.17234606e-14 8.00333309,-4.17234606e-14 C11.2857001,-4.17234606e-14 14.26294,1.70771146 15.6105013,4.36281729 C15.87161,4.87803185 16.0066662,5.43726462 16.0066662,6.00250006 C16.0066662,6.56773549 15.87161,7.12696826 15.6105013,7.64218283 C15.4322061,7.99347856 15.2253821,8.32818938 14.9930972,8.64455428 M12.6644655,10.7384633 C11.2791808,11.613288 9.77430171,12.0050001 8.00333309,12.0050001 C4.7209661,12.0050001 1.74372625,10.2972887 0.396165013,7.64218283 C0.135056257,7.12696826 0,6.56773549 0,6.00250006 C0,5.43726462 0.135056257,4.87803185 0.396165013,4.36281729 C1.04293827,3.08847709 1.96716063,2.04606907 3.21831279,1.29227553" id="Shape"></path>
                <line x1="0.0348478402" y1="-1.96160421" x2="16.1665811" y2="14.1666951" id="Icon"></line>
            </g>
        </g>
    </g>
</svg>