<?xml version="1.0" encoding="UTF-8"?>
<svg width="24px" height="24px" viewBox="0 0 24 24" version="1.1" xmlns="http://www.w3.org/2000/svg" xmlns:xlink="http://www.w3.org/1999/xlink">
    <title>Group</title>
    <g id="Symbols" stroke="none" stroke-width="1" fill="none" fill-rule="evenodd">
        <g id="Interface,-Essential/eye-show-up-arrow" fill-rule="nonzero">
            <g id="Group" fill-rule="evenodd" transform="translate(-0.005, -0.005)">
                <g transform="translate(4.0051, 6.005)" fill-rule="nonzero" id="Path" stroke="#74D999" stroke-linecap="round" stroke-linejoin="round" stroke-width="1.5">
                    <path d="M6.18357533,7.82025719 C5.17915696,6.81583881 5.17915696,5.18616027 6.18357533,4.17974108 C7.18799371,3.17532271 8.81767225,3.17532271 9.82409143,4.17974108 C10.8285098,5.18415946 10.8285098,6.81383801 9.82409143,7.82025719 C8.81767225,8.82667637 7.18899411,8.82667637 6.18357533,7.82025719"></path>
                    <path d="M16.0066662,6.00250006 C16.0066662,6.56773549 15.87161,7.12696826 15.6105013,7.64218283 L15.6105013,7.64218283 C14.26294,10.2972887 11.2857001,12.0050001 8.00333309,12.0050001 C4.7209661,12.0050001 1.74372625,10.2972887 0.396165013,7.64218283 L0.396165013,7.64218283 C0.135056257,7.12696826 0,6.56773549 0,6.00250006 C0,5.43726462 0.135056257,4.87803185 0.396165013,4.36281729 L0.396165013,4.36281729 C1.74372625,1.70771146 4.7209661,0 8.00333309,0 C11.2857001,0 14.26294,1.70771146 15.6105013,4.36281729 L15.6105013,4.36281729 C15.87161,4.87803185 16.0066662,5.43726462 16.0066662,6.00250006 Z"></path>
                </g>
                <polygon id="Path" fill-rule="nonzero" points="24.0100002 24.0100002 0 24.0100002 0 0 24.0100002 0"></polygon>
            </g>
        </g>
    </g>
</svg>