<?xml version="1.0" encoding="UTF-8"?>
<svg width="25px" height="25px" viewBox="0 0 25 25" version="1.1" xmlns="http://www.w3.org/2000/svg" xmlns:xlink="http://www.w3.org/1999/xlink">
    <title>Group</title>
    <g id="Perfil" stroke="none" stroke-width="1" fill="none" fill-rule="evenodd">
        <g id="Tela-Perfil" fill-rule="nonzero" transform="translate(-91, -782)">
            <g id="Interface,-Essential/home-house-line" transform="translate(103.0124, 794.0124) rotate(-0.0593) translate(-103.0124, -794.0124)translate(91.0124, 782.0124)" fill-rule="evenodd">
                <g id="Group" transform="translate(-0, -0)">
                    <polygon id="Path" fill-rule="nonzero" points="0 0 24 0 24 24 0 24"></polygon>
                    <path d="M15.5920517,3.51002856 L19.5920634,6.71003862 C20.9560099,7.80124438 21.75,9.45327369 21.75,11.2000003 L21.75,16.0000043 C21.75,19.1756391 19.1756362,21.750004 16,21.750004 L8,21.750004 C4.82436384,21.750004 2.25,19.1756391 2.25,16.0000043 L2.25,11.2000003 C2.25,9.45325642 3.04402193,7.80121494 4.40800878,6.71002843 L8.40800516,3.51003149 C10.508023,1.82999531 13.4920375,1.82999531 15.5920517,3.51002856 Z M9.34505144,4.68133174 L5.34505056,7.88133228 C4.33688494,8.68786257 3.75,9.90893498 3.75,11.2000003 L3.75,16.0000043 C3.75,18.3472121 5.65279114,20.2500047 8,20.2500047 L16,20.2500047 C18.3472089,20.2500047 20.25,18.3472121 20.25,16.0000043 L20.25,11.2000003 C20.25,9.90893943 19.6631354,8.68786936 18.6550081,7.8813316 L14.6550054,4.68132875 C13.1028183,3.43956289 10.8972423,3.43956289 9.34505144,4.68133174 Z M16.0503302,15.91819 C16.0503302,16.3324036 15.7145437,16.66819 15.3003302,16.66819 L8.5643301,16.66819 C8.15011654,16.66819 7.8143301,16.3324036 7.8143301,15.91819 C7.8143301,15.5039764 8.15011654,15.16819 8.5643301,15.16819 L15.3003302,15.16819 C15.7145437,15.16819 16.0503302,15.5039764 16.0503302,15.91819 Z" id="Combined-Shape" fill="#000000" fill-rule="nonzero"></path>
                </g>
            </g>
        </g>
    </g>
</svg>