<?xml version="1.0" encoding="UTF-8"?>
<svg width="24px" height="24px" viewBox="0 0 24 24" version="1.1" xmlns="http://www.w3.org/2000/svg" xmlns:xlink="http://www.w3.org/1999/xlink">
    <title>Group</title>
    <g id="Symbols" stroke="none" stroke-width="1" fill="none" fill-rule="evenodd">
        <g id="Group" transform="translate(-0.005, -0.005)">
            <path d="M18.905,20.305 L13.305,14.705 L13.305,14.705 C12.805,15.105 12.23,15.4217 11.58,15.655 C10.93,15.8883 10.2383,16.005 9.505,16.005 C7.68833,16.005 6.15083,15.3758 4.8925,14.1175 C3.63417,12.8592 3.005,11.3217 3.005,9.505 C3.005,7.68833 3.63417,6.15083 4.8925,4.8925 C6.15083,3.63417 7.68833,3.005 9.505,3.005 C11.3217,3.005 12.8592,3.63417 14.1175,4.8925 C15.3758,6.15083 16.005,7.68833 16.005,9.505 C16.005,10.2383 15.8883,10.93 15.655,11.58 C15.4217,12.23 15.105,12.805 14.705,13.305 L20.305,18.905 C20.6915993,19.2915993 20.6915993,19.9184007 20.305,20.305 C19.9184007,20.6915993 19.2915993,20.6915993 18.905,20.305 Z M9.505,14.005 C10.755,14.005 11.8175,13.5675 12.6925,12.6925 C13.5675,11.8175 14.005,10.755 14.005,9.505 C14.005,8.255 13.5675,7.1925 12.6925,6.3175 C11.8175,5.4425 10.755,5.005 9.505,5.005 C8.255,5.005 7.1925,5.4425 6.3175,6.3175 C5.4425,7.1925 5.005,8.255 5.005,9.505 C5.005,10.755 5.4425,11.8175 6.3175,12.6925 C7.1925,13.5675 8.255,14.005 9.505,14.005 Z" id="Shape" fill="#49454F" fill-rule="nonzero"></path>
            <polygon id="Path" fill-rule="nonzero" points="24.0100002 24.0100002 0 24.0100002 0 0 24.0100002 0"></polygon>
        </g>
    </g>
</svg>