<?xml version="1.0" encoding="UTF-8"?>
<svg width="22px" height="22px" viewBox="0 0 22 22" version="1.1" xmlns="http://www.w3.org/2000/svg" xmlns:xlink="http://www.w3.org/1999/xlink">
    <title>Group</title>
    <g id="Login" stroke="none" stroke-width="1" fill="none" fill-rule="evenodd">
        <g id="Tela-Login-" fill-rule="nonzero" transform="translate(-32, -436)">
            <g id="Password" fill-rule="evenodd" transform="translate(32, 406)">
                <g id="Group" transform="translate(0, 30)" fill-rule="nonzero">
                    <g id="Group" fill-rule="evenodd" transform="translate(-0, -0)">
                        <g>
                            <polygon id="Path" fill-rule="nonzero" points="0 0 22 0 22 22 0 22"></polygon>
                            <path d="M7.33333349,9.16666651 L7.33333349,6.41666658 C7.33333349,4.39174986 8.97508343,2.75 11.0000002,2.75 C13.0249171,2.75 14.666667,4.39174986 14.666667,6.41666658 L14.666667,9.16666651" id="Path" stroke="#0F2130" stroke-width="1.5" stroke-linecap="round" stroke-linejoin="round" fill-rule="nonzero"></path>
                            <path d="M15.5833335,19.25 L6.41666678,19.25 C5.40375012,19.25 4.58333349,18.4295834 4.58333349,17.4166667 L4.58333349,11.0000003 C4.58333349,9.98708361 5.40375012,9.16666698 6.41666678,9.16666698 L15.5833335,9.16666698 C16.5962499,9.16666698 17.4166665,9.98708361 17.4166665,11.0000003 L17.4166665,17.4166667 C17.4166665,18.4295834 16.5962499,19.25 15.5833335,19.25 Z" id="Path" stroke="#0F2130" stroke-width="1.5" stroke-linecap="round" stroke-linejoin="round" fill-rule="nonzero"></path>
                            <circle id="Oval" fill="#0F2130" cx="8.21500005" cy="14.2" r="1"></circle>
                            <circle id="Oval" fill="#0F2130" cx="10.96" cy="14.2" r="1"></circle>
                            <circle id="Oval" fill="#0F2130" cx="13.7" cy="14.2" r="1"></circle>
                        </g>
                    </g>
                </g>
            </g>
        </g>
    </g>
</svg>