<?xml version="1.0" encoding="UTF-8"?>
<svg width="24px" height="24px" viewBox="0 0 24 24" version="1.1" xmlns="http://www.w3.org/2000/svg" xmlns:xlink="http://www.w3.org/1999/xlink">
    <title>Group</title>
    <g id="Componentes" stroke="none" stroke-width="1" fill="none" fill-rule="evenodd">
        <g id="Edit-4" fill-rule="nonzero" transform="translate(2, 1.9999)">
            <g id="Group" fill-rule="evenodd" transform="translate(-2, -2.0001)">
                <path d="M16.1666697,4.50012771 C16.3855386,4.28125794 16.6453749,4.10764086 16.931342,3.9891894 C17.2173092,3.87073793 17.5238062,3.80977188 17.8333348,3.80977188 C18.1428634,3.80977188 18.4493605,3.87073793 18.7353276,3.9891894 C19.0212947,4.10764086 19.281132,4.28125794 19.5000018,4.50012771 C19.7188716,4.71899749 19.892489,4.97883363 20.0109404,5.26480077 C20.1293919,5.55076791 20.1903571,5.85726554 20.1903571,6.16679416 C20.1903571,6.47632278 20.1293919,6.78282053 20.0109404,7.06878767 C19.892489,7.35475482 19.7188716,7.61459137 19.5000018,7.83346115 L8.25000275,19.0834592 L3.66666973,20.3334592 L4.91666961,15.7501272 L16.1666697,4.50012771 Z" id="Icon" stroke="#A2A2A7" stroke-width="1.5" fill-rule="nonzero"></path>
                <rect id="Rectangle" fill-rule="nonzero" x="0" y="0" width="24.0100002" height="24.0100002"></rect>
            </g>
        </g>
    </g>
</svg>