<?xml version="1.0" encoding="UTF-8"?>
<svg width="24px" height="24px" viewBox="0 0 24 24" version="1.1" xmlns="http://www.w3.org/2000/svg" xmlns:xlink="http://www.w3.org/1999/xlink">
    <title>Group</title>
    <g id="Componentes" stroke="none" stroke-width="1" fill="none" fill-rule="evenodd">
        <g id="Phone" fill-rule="nonzero" transform="translate(2, 2)">
            <g id="Group" fill-rule="evenodd" transform="translate(-2, -2.0001)">
                <path d="M20.3333367,16.1001282 L20.3333367,18.6001282 C20.3342788,18.8322126 20.2867379,19.0619355 20.1937608,19.2745838 C20.1007836,19.4872321 19.9644189,19.6781168 19.7934007,19.8350143 C19.6223824,19.9919118 19.4204812,20.111364 19.2006272,20.1857166 C18.9807733,20.2600693 18.7478135,20.2876839 18.5166692,20.2667942 C15.9523641,19.9881615 13.4891685,19.1119154 11.3250026,17.7084617 C9.31152619,16.429015 7.60444976,14.7219381 6.32500303,12.7084617 C4.91665137,10.5344651 4.04020544,8.05928979 3.76666963,5.483461 C3.74584504,5.25301688 3.77323206,5.02076134 3.84708662,4.80148147 C3.92094119,4.58220159 4.03964532,4.38070215 4.19564129,4.20981208 C4.35163725,4.03892202 4.54150697,3.90238561 4.75316203,3.80889612 C4.9648171,3.71540663 5.19362014,3.66701239 5.42500318,3.66671369 L7.92500294,3.66671369 C8.32942481,3.66281412 8.72149605,3.80602665 9.02813757,4.06973837 C9.33477909,4.33345009 9.53506723,4.69966669 9.59166945,5.1001278 C9.69718863,5.90018312 9.89287797,6.68573348 10.1750034,7.44179438 C10.2871227,7.74006418 10.311388,8.06422315 10.2449249,8.37586115 C10.1784618,8.68749915 10.0240553,8.97355373 9.80000246,9.20012806 L8.74166954,10.258461 C9.92796577,12.344749 11.6553816,14.0721648 13.7416695,15.258461 L14.8000029,14.2001285 C15.0265773,13.9760757 15.3126304,13.8216692 15.6242684,13.7552061 C15.9359064,13.688743 16.2600654,13.7130083 16.5583352,13.8251276 C17.3143961,14.107253 18.099948,14.3029424 18.9000033,14.4084616 C19.3048079,14.4655696 19.6745045,14.6694664 19.9387807,14.9813738 C20.2030568,15.2932811 20.3434773,15.6914409 20.3333367,16.1001282 Z" id="Icon" stroke="#A2A2A7" stroke-width="1.5" stroke-linecap="round" stroke-linejoin="round" fill-rule="nonzero"></path>
                <rect id="Rectangle" fill-rule="nonzero" x="0" y="0" width="24.0100002" height="24.0100002"></rect>
            </g>
        </g>
    </g>
</svg>