<?xml version="1.0" encoding="UTF-8"?>
<svg width="25px" height="25px" viewBox="0 0 25 25" version="1.1" xmlns="http://www.w3.org/2000/svg" xmlns:xlink="http://www.w3.org/1999/xlink">
    <title>Group</title>
    <g id="Perfil" stroke="none" stroke-width="1" fill="none" fill-rule="evenodd">
        <g id="Tela-Perfil" fill-rule="nonzero" transform="translate(-229, -782)">
            <g id="Component" transform="translate(241.0124, 794.0124) rotate(-0.0593) translate(-241.0124, -794.0124)translate(229.0124, 782.0124)" fill-rule="evenodd">
                <g id="Group" transform="translate(-0, -0.0001)">
                    <rect id="Rectangle" fill-rule="nonzero" x="0" y="0" width="24.0100002" height="24.0100002"></rect>
                    <path d="M2,9 C2,5.68629146 4.68629193,3 8,3 L16,3 C19.3137074,3 22,5.68629146 22,9 L22,16 C22,19.3137093 19.3137074,22 16,22 L8,22 C4.68629193,22 2,19.3137093 2,16 L2,9 Z M7.5,7.75 C7.08578634,7.75 6.75,8.08578634 6.75,8.5 C6.75,8.91421366 7.08578634,9.25 7.5,9.25 L12,9.25 C12.4142132,9.25 12.75,8.91421366 12.75,8.5 C12.75,8.08578634 12.4142132,7.75 12,7.75 L7.5,7.75 Z M18.5,12.75 C18.5,13.1642132 18.1642132,13.5 17.75,13.5 C17.3357868,13.5 17,13.1642132 17,12.75 C17,12.3357868 17.3357868,12 17.75,12 C18.1642132,12 18.5,12.3357868 18.5,12.75 Z M8,4.5 L16,4.5 C18.485281,4.5 20.5,6.51471853 20.5,9 L20.5,9.18457031 L17.9865112,9.18457031 C15.8973751,9.18457031 14.2037964,10.8781495 14.2037964,12.9672852 C14.2037964,15.0564213 15.8973789,16.75 17.9865131,16.75 L20.4377804,16.75 C20.0807209,18.8782845 18.2297478,20.5 16,20.5 L8,20.5 C5.51471877,20.5 3.5,18.485281 3.5,16 L3.5,9 C3.5,6.51471853 5.51471877,4.5 8,4.5 Z M20.5,15.25 L20.5,10.6845703 L17.9865112,10.6845703 C16.7258024,10.6845703 15.7037964,11.7065763 15.7037964,12.9672852 C15.7037964,14.227993 16.7258043,15.25 17.9865131,15.25 L20.5,15.25 Z" id="Union" fill="#000000"></path>
                </g>
            </g>
        </g>
    </g>
</svg>